PathFileType	4	(X/Y/Z)	G:\マイドライブ\biomec\experimentalData\240725\CJ2.trc
DataRate	CameraRate	NumFrames	NumMarkers	Units	OrigDataRate	OrigDataStartFrame	OrigNumFrames
200.00	200.00	      4	52	mm	200.00	1247	      1662
Frame#	Time	handR			wrRI			wrRO			elbRI			elbRO			shRF			shRU			shRB			handL			wrLI			wrLO			elbLI			elbLO			shLF			shLU			shLB			toeR			baRI			baRO			heelR			anRI			anRO			knRI			knRO			troR			toeL			baLI			baLO			heelL			anLI			anLO			knLI			knLO			troL			head			earR			earL			clav			c7			ribR			ribL			xiph			ASISR			ASISL			PSISR			PSISL			t8			t11			L1			L3			LS			COX			
		X1	Y1	Z1	X2	Y2	Z2	X3	Y3	Z3	X4	Y4	Z4	X5	Y5	Z5	X6	Y6	Z6	X7	Y7	Z7	X8	Y8	Z8	X9	Y9	Z9	X10	Y10	Z10	X11	Y11	Z11	X12	Y12	Z12	X13	Y13	Z13	X14	Y14	Z14	X15	Y15	Z15	X16	Y16	Z16	X17	Y17	Z17	X18	Y18	Z18	X19	Y19	Z19	X20	Y20	Z20	X21	Y21	Z21	X22	Y22	Z22	X23	Y23	Z23	X24	Y24	Z24	X25	Y25	Z25	X26	Y26	Z26	X27	Y27	Z27	X28	Y28	Z28	X29	Y29	Z29	X30	Y30	Z30	X31	Y31	Z31	X32	Y32	Z32	X33	Y33	Z33	X34	Y34	Z34	X35	Y35	Z35	X36	Y36	Z36	X37	Y37	Z37	X38	Y38	Z38	X39	Y39	Z39	X40	Y40	Z40	X41	Y41	Z41	X42	Y42	Z42	X43	Y43	Z43	X44	Y44	Z44	X45	Y45	Z45	X46	Y46	Z46	X47	Y47	Z47	X48	Y48	Z48	X49	Y49	Z49	X50	Y50	Z50	X51	Y51	Z51	X52	Y52	Z52	

1247	6.230	546.17389	925.04114	1028.17981	490.25854	877.13959	1002.15479	462.42435	935.03162	1037.81372	318.51385	847.11615	1178.69165	359.14734	778.74811	1189.46448	551.10852	916.74280	1392.05164	490.97144	911.66785	1424.80042	440.95102	934.54016	1391.72070	672.14691	1179.86475	1035.61646	671.51178	1270.77271	1017.62878	625.64746	1240.64282	1070.36804	577.67297	1433.68542	1166.19128	658.87476	1455.30554	1174.40991	679.31818	1210.61108	1371.43823	642.64038	1261.31531	1400.30396	578.32245	1268.54724	1356.44141	646.48639	719.52319	38.88874	574.39862	784.80560	30.77320	526.11035	668.62054	45.04638	368.50497	796.33887	50.33179	469.33817	827.00177	106.68456	430.50388	739.76453	120.06123	560.30664	912.82990	449.81720	539.52319	815.86584	478.11841	491.38806	916.87024	858.94434	638.56854	1390.87048	39.71593	581.43060	1438.78369	69.24931	678.22626	1498.32605	55.77579	579.69769	1635.43542	156.63654	582.52740	1498.55530	189.71100	656.05298	1559.95789	184.57159	608.60168	1277.34229	474.17245	695.46191	1327.55859	503.08820	661.66504	1220.37952	865.66809	616.16492	1106.26428	1687.60217	625.02252	987.57214	1541.07520	699.92236	1125.18311	1519.47949	642.86017	1052.61914	1366.03503	541.94086	1107.41650	1451.41541	570.64294	957.93268	1073.47144	660.81152	1147.05017	1071.14136	663.04303	1030.31030	1208.27673	573.67633	947.43921	942.61389	674.77191	1138.88208	961.88336	445.54294	1070.07703	976.06049	508.56445	1173.61194	983.72321	470.70071	1128.30835	1241.19250	476.57108	1121.40906	1115.04578	483.52460	1119.28308	1056.39612	475.34540	1119.83398	1011.07654	466.63821	1128.96179	972.56891	447.52365	1144.92981	869.33380	
1248	6.235	545.07996	930.37402	1027.16382	488.80392	883.01703	1001.28577	461.35596	940.98444	1036.95422	316.70096	854.35858	1178.10730	357.12256	785.80518	1188.60156	550.18292	922.60480	1390.76721	490.29590	917.52698	1423.49048	440.30560	940.95422	1390.88660	673.43170	1183.59766	1034.14001	673.63800	1274.81335	1016.02271	627.52997	1245.00940	1068.94141	581.92621	1438.40491	1165.17749	663.37598	1459.11523	1173.05469	681.93048	1214.34070	1369.92139	646.02161	1265.57507	1398.99048	581.61499	1273.40112	1355.21826	646.67346	719.43787	38.65874	574.55627	784.78503	30.73300	526.22711	668.65985	45.26019	368.83279	796.69000	51.14280	469.93069	827.43958	106.88093	430.95987	740.40289	120.67944	560.49677	915.74854	449.94638	538.83911	818.67926	478.53662	490.50894	922.28876	858.29883	636.66718	1392.05078	40.53320	579.96497	1441.55396	67.21879	677.72876	1499.50635	53.77989	581.45673	1639.25647	152.25153	582.46613	1502.56689	187.33023	656.90375	1562.82141	181.74701	607.62292	1282.39124	473.38773	695.09161	1331.25769	501.20737	662.76849	1224.59509	864.24829	617.33807	1110.73438	1686.40100	625.11841	991.72809	1540.13440	701.53424	1128.64380	1518.45422	643.42303	1056.85522	1364.65466	543.32159	1112.54700	1450.47168	569.81299	963.01880	1072.35864	661.82739	1151.14624	1069.67981	663.05206	1034.45544	1206.82959	572.84052	952.43835	941.78906	675.45087	1143.10522	960.37189	445.59952	1076.27209	975.01044	509.32593	1179.37683	982.66364	472.06992	1134.50610	1240.31641	477.29678	1127.36304	1114.24622	484.11154	1125.16809	1055.50281	477.62927	1125.02209	1010.54041	467.39221	1134.89429	971.56482	448.02731	1150.88586	868.02649	
1249	6.240	543.78107	935.82538	1026.18896	487.14618	889.02075	1000.25464	460.07333	947.19934	1036.12805	315.01221	861.71832	1177.29065	354.82721	793.00500	1187.91821	549.41187	927.65344	1389.79150	489.49396	923.39886	1422.53442	439.98346	947.10962	1390.06555	674.58191	1187.67456	1032.70117	675.86877	1278.78430	1014.67108	629.56976	1249.41455	1067.54309	587.35675	1443.23962	1163.19177	668.00739	1463.26245	1171.73901	684.36499	1218.21594	1368.58411	649.14325	1269.96594	1397.73267	584.83618	1278.54089	1353.97253	646.81653	719.32446	38.48882	574.71539	784.72980	30.70218	526.34338	668.68829	45.51163	369.12833	796.96106	51.96980	470.63110	827.81726	107.16515	431.57401	741.22333	120.96583	560.03864	917.65674	449.51526	537.78790	821.77637	479.21436	489.61710	927.78888	857.78619	634.90210	1393.36243	41.25872	578.83160	1444.13184	65.34160	677.78149	1500.11169	52.32115	582.67340	1642.58789	148.03680	582.14307	1506.34277	185.01555	657.34064	1565.81848	179.12338	606.43689	1287.09119	472.25766	694.68213	1335.17542	499.55789	663.81287	1229.13721	862.63452	618.55286	1115.20081	1685.11682	625.34662	996.23297	1538.93079	703.24310	1131.94910	1517.55823	644.19843	1061.28589	1363.50854	544.95715	1117.91553	1449.40344	568.97852	968.31287	1071.52039	662.81348	1155.61877	1068.34241	663.08990	1038.82385	1205.73376	571.87329	957.37219	941.05652	676.06110	1147.58179	959.08704	445.56308	1082.45203	974.19336	510.16565	1185.17456	981.51471	473.31906	1140.60327	1239.52991	478.06607	1133.67163	1113.44238	484.79721	1131.36108	1054.46228	478.38953	1130.83191	1009.59509	468.06183	1140.92590	970.46503	448.79715	1156.90491	866.66302	
1250	6.245	542.51263	941.16235	1025.14014	485.26944	895.83051	999.42773	459.18372	953.27863	1035.26611	313.59360	869.20789	1176.76343	352.47119	800.32318	1187.12231	548.71509	932.93054	1388.65479	488.78415	929.46295	1421.88416	439.36356	954.09473	1388.96594	675.61383	1191.82202	1031.34570	678.11200	1282.56714	1013.13751	631.43475	1254.02271	1066.16516	591.24323	1448.10242	1162.44775	672.83081	1467.43481	1170.27588	686.96771	1222.00183	1367.11426	653.38525	1273.66736	1396.68787	588.04071	1283.58105	1352.97192	646.94196	719.23834	38.35931	574.84009	784.71350	30.70626	526.47162	668.73627	45.76290	369.51776	797.25214	52.88902	471.10553	828.04968	107.52455	431.88791	741.69617	121.76370	559.11884	920.41095	449.56262	536.41345	824.87701	479.75638	488.59366	933.45850	857.41290	633.24915	1394.52197	42.05785	577.70154	1446.29077	63.61636	677.92596	1500.88721	51.33223	583.28601	1645.59033	143.58492	581.47571	1509.79309	182.87672	657.28406	1568.74622	176.47897	605.41724	1291.87073	471.08221	694.51758	1338.85706	497.67105	665.43109	1232.32715	861.41766	619.80396	1119.73938	1684.05811	625.33685	1000.46979	1537.95935	704.97986	1135.29126	1516.20422	644.89111	1065.42419	1362.30493	546.45428	1123.50623	1448.63037	568.31476	973.88605	1070.39734	664.00903	1160.07104	1067.11169	663.43140	1043.38281	1204.34656	570.93933	962.85449	940.19958	676.60706	1152.18457	957.64514	445.61542	1088.71729	973.27875	511.11646	1191.09521	980.72327	474.47968	1146.97705	1238.89136	478.87302	1139.97119	1112.67944	488.08295	1136.28918	1054.14478	479.65555	1136.73792	1007.67694	468.35291	1146.99402	969.57819	449.12570	1162.96069	865.50299	
